# xmcd
#
# Track frame offsets: 
#        150
#        10638
#        21573
#        32289
#        42642
#        54259
#        66613
#        78046
#        87265
#        100747
#        111752
#        122539
#
# Disc length: 1761 seconds
#
# Revision: 0
# Processed by: cddbd v1.5.2PL0 Copyright (c) Steve Scherf et al.
# Submitted via: ExactAudioCopy v1.1
#
DISCID=8d06df0c
DTITLE=Dave "Baby" Cortez - In Orbit
DYEAR=1967
DGENRE=Soul
TTITLE0=Count Down Part 1
TTITLE1=Belly Rub Part 2
TTITLE2=Do Any Dance
TTITLE3=Peg Leg
TTITLE4=Sticks and Stones
TTITLE5=My Sweet Baby Part 1
TTITLE6=In Orbit
TTITLE7=Summertime
TTITLE8=Belly Rub Part 2
TTITLE9=You Talk Too Much
TTITLE10=Count Down Part 2
TTITLE11=My Sweet Baby Part 2
EXTD=
EXTT0=
EXTT1=
EXTT2=
EXTT3=
EXTT4=
EXTT5=
EXTT6=
EXTT7=
EXTT8=
EXTT9=
EXTT10=
EXTT11=
PLAYORDER=
